<svg width="24" height="24" viewBox="0 0 24 24" fill="none" xmlns="http://www.w3.org/2000/svg">
<path d="M18.7915 17.1677C15.6447 16.0213 14.6387 15.0536 14.6387 12.9817C14.6387 11.7383 15.6698 10.9325 16.0212 9.86682C16.3727 8.80116 16.5761 7.53948 16.7451 6.6217C16.9141 5.70392 16.9812 5.34894 17.0731 4.37106C17.1855 3.15064 16.3685 0 12 0C7.63278 0 6.81318 3.15064 6.92808 4.37106C7.02 5.34894 7.08752 5.70396 7.25616 6.6217C7.42482 7.53946 7.62616 8.80108 7.97742 9.86682C8.32866 10.9325 9.36122 11.7383 9.36122 12.9817C9.36122 15.0536 8.35526 16.0213 5.20846 17.1677C2.05022 18.3166 0 19.4496 0 20.25V24H24V20.25C24 19.4509 21.9485 18.3179 18.7915 17.1677V17.1677Z" fill="#76B9F5" fill-opacity="0.96"/>
</svg>
