<svg width="29" height="29" viewBox="0 0 29 29" fill="none" xmlns="http://www.w3.org/2000/svg">
<path d="M25.7602 24.1997L18.4054 16.8449C19.5467 15.3694 20.1641 13.5654 20.1641 11.668C20.1641 9.39668 19.2776 7.26699 17.6747 5.66123C16.0718 4.05547 13.9364 3.17188 11.668 3.17188C9.39951 3.17188 7.26416 4.0583 5.66123 5.66123C4.05547 7.26416 3.17188 9.39668 3.17188 11.668C3.17188 13.9364 4.0583 16.0718 5.66123 17.6747C7.26416 19.2805 9.39668 20.1641 11.668 20.1641C13.5654 20.1641 15.3666 19.5467 16.8421 18.4082L24.1969 25.7602C24.2184 25.7817 24.244 25.7989 24.2722 25.8105C24.3004 25.8222 24.3306 25.8282 24.3611 25.8282C24.3916 25.8282 24.4219 25.8222 24.45 25.8105C24.4782 25.7989 24.5038 25.7817 24.5254 25.7602L25.7602 24.5282C25.7817 24.5067 25.7989 24.4811 25.8105 24.4529C25.8222 24.4247 25.8282 24.3945 25.8282 24.364C25.8282 24.3335 25.8222 24.3033 25.8105 24.2751C25.7989 24.2469 25.7817 24.2213 25.7602 24.1997V24.1997ZM16.1539 16.1539C14.9531 17.3519 13.3615 18.0117 11.668 18.0117C9.97441 18.0117 8.38281 17.3519 7.18203 16.1539C5.98408 14.9531 5.32422 13.3615 5.32422 11.668C5.32422 9.97441 5.98408 8.37998 7.18203 7.18203C8.38281 5.98408 9.97441 5.32422 11.668 5.32422C13.3615 5.32422 14.956 5.98125 16.1539 7.18203C17.3519 8.38281 18.0117 9.97441 18.0117 11.668C18.0117 13.3615 17.3519 14.956 16.1539 16.1539Z" fill="#7C7C7C"/>
</svg>
